<mxfile host="app.diagrams.net" agent="Mozilla/5.0 (Windows NT 10.0; Win64; x64) AppleWebKit/537.36 (KHTML, like Gecko) Chrome/128.0.0.0 Safari/537.36" version="24.7.14">
  <diagram name="Page-1" id="KCBkLar5fDATjjlt2jlT">
    <mxGraphModel>
      <root>
        <mxCell id="0" />
        <mxCell id="1" parent="0" />
        <mxCell id="2" value="User" style="swimlane;fontStyle=1;align=center;verticalAlign=top;childLayout=stackLayout;horizontal=1;startSize=26.417142595563615;horizontalStack=0;resizeParent=1;resizeParentMax=0;resizeLast=0;collapsible=0;marginBottom=0;" vertex="1" parent="1">
          <mxGeometry x="8" y="518" width="146" height="193" as="geometry" />
        </mxCell>
        <mxCell id="3" value="- name: string" style="text;strokeColor=none;fillColor=none;align=left;verticalAlign=top;spacingLeft=4;spacingRight=4;overflow=hidden;rotatable=0;points=[[0,0.5],[1,0.5]];portConstraint=eastwest;" vertex="1" parent="2">
          <mxGeometry y="26" width="146" height="26" as="geometry" />
        </mxCell>
        <mxCell id="4" value="- email: string" style="text;strokeColor=none;fillColor=none;align=left;verticalAlign=top;spacingLeft=4;spacingRight=4;overflow=hidden;rotatable=0;points=[[0,0.5],[1,0.5]];portConstraint=eastwest;" vertex="1" parent="2">
          <mxGeometry y="53" width="146" height="26" as="geometry" />
        </mxCell>
        <mxCell id="5" value="- username: string" style="text;strokeColor=none;fillColor=none;align=left;verticalAlign=top;spacingLeft=4;spacingRight=4;overflow=hidden;rotatable=0;points=[[0,0.5],[1,0.5]];portConstraint=eastwest;" vertex="1" parent="2">
          <mxGeometry y="79" width="146" height="26" as="geometry" />
        </mxCell>
        <mxCell id="6" style="line;strokeWidth=1;fillColor=none;align=left;verticalAlign=middle;spacingTop=-1;spacingLeft=3;spacingRight=3;rotatable=0;labelPosition=right;points=[];portConstraint=eastwest;strokeColor=inherit;" vertex="1" parent="2">
          <mxGeometry y="106" width="146" height="8" as="geometry" />
        </mxCell>
        <mxCell id="7" value="+login()" style="text;strokeColor=none;fillColor=none;align=left;verticalAlign=top;spacingLeft=4;spacingRight=4;overflow=hidden;rotatable=0;points=[[0,0.5],[1,0.5]];portConstraint=eastwest;" vertex="1" parent="2">
          <mxGeometry y="114" width="146" height="26" as="geometry" />
        </mxCell>
        <mxCell id="8" value="+logout()" style="text;strokeColor=none;fillColor=none;align=left;verticalAlign=top;spacingLeft=4;spacingRight=4;overflow=hidden;rotatable=0;points=[[0,0.5],[1,0.5]];portConstraint=eastwest;" vertex="1" parent="2">
          <mxGeometry y="140" width="146" height="26" as="geometry" />
        </mxCell>
        <mxCell id="9" value="+postBlog()" style="text;strokeColor=none;fillColor=none;align=left;verticalAlign=top;spacingLeft=4;spacingRight=4;overflow=hidden;rotatable=0;points=[[0,0.5],[1,0.5]];portConstraint=eastwest;" vertex="1" parent="2">
          <mxGeometry y="167" width="146" height="26" as="geometry" />
        </mxCell>
        <mxCell id="10" value="BlogPost" style="swimlane;fontStyle=1;align=center;verticalAlign=top;childLayout=stackLayout;horizontal=1;startSize=26.417142595563615;horizontalStack=0;resizeParent=1;resizeParentMax=0;resizeLast=0;collapsible=0;marginBottom=0;" vertex="1" parent="1">
          <mxGeometry x="137" y="779" width="132" height="193" as="geometry" />
        </mxCell>
        <mxCell id="11" value="- title: string" style="text;strokeColor=none;fillColor=none;align=left;verticalAlign=top;spacingLeft=4;spacingRight=4;overflow=hidden;rotatable=0;points=[[0,0.5],[1,0.5]];portConstraint=eastwest;" vertex="1" parent="10">
          <mxGeometry y="26" width="132" height="26" as="geometry" />
        </mxCell>
        <mxCell id="12" value="- content: string" style="text;strokeColor=none;fillColor=none;align=left;verticalAlign=top;spacingLeft=4;spacingRight=4;overflow=hidden;rotatable=0;points=[[0,0.5],[1,0.5]];portConstraint=eastwest;" vertex="1" parent="10">
          <mxGeometry y="53" width="132" height="26" as="geometry" />
        </mxCell>
        <mxCell id="13" value="- date: date" style="text;strokeColor=none;fillColor=none;align=left;verticalAlign=top;spacingLeft=4;spacingRight=4;overflow=hidden;rotatable=0;points=[[0,0.5],[1,0.5]];portConstraint=eastwest;" vertex="1" parent="10">
          <mxGeometry y="79" width="132" height="26" as="geometry" />
        </mxCell>
        <mxCell id="14" style="line;strokeWidth=1;fillColor=none;align=left;verticalAlign=middle;spacingTop=-1;spacingLeft=3;spacingRight=3;rotatable=0;labelPosition=right;points=[];portConstraint=eastwest;strokeColor=inherit;" vertex="1" parent="10">
          <mxGeometry y="106" width="132" height="8" as="geometry" />
        </mxCell>
        <mxCell id="15" value="+publish()" style="text;strokeColor=none;fillColor=none;align=left;verticalAlign=top;spacingLeft=4;spacingRight=4;overflow=hidden;rotatable=0;points=[[0,0.5],[1,0.5]];portConstraint=eastwest;" vertex="1" parent="10">
          <mxGeometry y="114" width="132" height="26" as="geometry" />
        </mxCell>
        <mxCell id="16" value="+edit()" style="text;strokeColor=none;fillColor=none;align=left;verticalAlign=top;spacingLeft=4;spacingRight=4;overflow=hidden;rotatable=0;points=[[0,0.5],[1,0.5]];portConstraint=eastwest;" vertex="1" parent="10">
          <mxGeometry y="140" width="132" height="26" as="geometry" />
        </mxCell>
        <mxCell id="17" value="+delete()" style="text;strokeColor=none;fillColor=none;align=left;verticalAlign=top;spacingLeft=4;spacingRight=4;overflow=hidden;rotatable=0;points=[[0,0.5],[1,0.5]];portConstraint=eastwest;" vertex="1" parent="10">
          <mxGeometry y="167" width="132" height="26" as="geometry" />
        </mxCell>
        <mxCell id="18" value="Comment" style="swimlane;fontStyle=1;align=center;verticalAlign=top;childLayout=stackLayout;horizontal=1;startSize=27.06000010172526;horizontalStack=0;resizeParent=1;resizeParentMax=0;resizeLast=0;collapsible=0;marginBottom=0;" vertex="1" parent="1">
          <mxGeometry x="141" y="1041" width="106" height="170" as="geometry" />
        </mxCell>
        <mxCell id="19" value="- text: string" style="text;strokeColor=none;fillColor=none;align=left;verticalAlign=top;spacingLeft=4;spacingRight=4;overflow=hidden;rotatable=0;points=[[0,0.5],[1,0.5]];portConstraint=eastwest;" vertex="1" parent="18">
          <mxGeometry y="27" width="106" height="27" as="geometry" />
        </mxCell>
        <mxCell id="20" value="- date: date" style="text;strokeColor=none;fillColor=none;align=left;verticalAlign=top;spacingLeft=4;spacingRight=4;overflow=hidden;rotatable=0;points=[[0,0.5],[1,0.5]];portConstraint=eastwest;" vertex="1" parent="18">
          <mxGeometry y="54" width="106" height="27" as="geometry" />
        </mxCell>
        <mxCell id="21" style="line;strokeWidth=1;fillColor=none;align=left;verticalAlign=middle;spacingTop=-1;spacingLeft=3;spacingRight=3;rotatable=0;labelPosition=right;points=[];portConstraint=eastwest;strokeColor=inherit;" vertex="1" parent="18">
          <mxGeometry y="81" width="106" height="8" as="geometry" />
        </mxCell>
        <mxCell id="22" value="+add()" style="text;strokeColor=none;fillColor=none;align=left;verticalAlign=top;spacingLeft=4;spacingRight=4;overflow=hidden;rotatable=0;points=[[0,0.5],[1,0.5]];portConstraint=eastwest;" vertex="1" parent="18">
          <mxGeometry y="89" width="106" height="27" as="geometry" />
        </mxCell>
        <mxCell id="23" value="+edit()" style="text;strokeColor=none;fillColor=none;align=left;verticalAlign=top;spacingLeft=4;spacingRight=4;overflow=hidden;rotatable=0;points=[[0,0.5],[1,0.5]];portConstraint=eastwest;" vertex="1" parent="18">
          <mxGeometry y="116" width="106" height="27" as="geometry" />
        </mxCell>
        <mxCell id="24" value="+delete()" style="text;strokeColor=none;fillColor=none;align=left;verticalAlign=top;spacingLeft=4;spacingRight=4;overflow=hidden;rotatable=0;points=[[0,0.5],[1,0.5]];portConstraint=eastwest;" vertex="1" parent="18">
          <mxGeometry y="143" width="106" height="27" as="geometry" />
        </mxCell>
        <mxCell id="25" value="Tag" style="swimlane;fontStyle=1;align=center;verticalAlign=top;childLayout=stackLayout;horizontal=1;startSize=27.960000610351564;horizontalStack=0;resizeParent=1;resizeParentMax=0;resizeLast=0;collapsible=0;marginBottom=0;" vertex="1" parent="1">
          <mxGeometry x="298" y="1052" width="157" height="148" as="geometry" />
        </mxCell>
        <mxCell id="26" value="- name: string" style="text;strokeColor=none;fillColor=none;align=left;verticalAlign=top;spacingLeft=4;spacingRight=4;overflow=hidden;rotatable=0;points=[[0,0.5],[1,0.5]];portConstraint=eastwest;" vertex="1" parent="25">
          <mxGeometry y="28" width="157" height="28" as="geometry" />
        </mxCell>
        <mxCell id="27" value="- description: string" style="text;strokeColor=none;fillColor=none;align=left;verticalAlign=top;spacingLeft=4;spacingRight=4;overflow=hidden;rotatable=0;points=[[0,0.5],[1,0.5]];portConstraint=eastwest;" vertex="1" parent="25">
          <mxGeometry y="56" width="157" height="28" as="geometry" />
        </mxCell>
        <mxCell id="28" style="line;strokeWidth=1;fillColor=none;align=left;verticalAlign=middle;spacingTop=-1;spacingLeft=3;spacingRight=3;rotatable=0;labelPosition=right;points=[];portConstraint=eastwest;strokeColor=inherit;" vertex="1" parent="25">
          <mxGeometry y="84" width="157" height="8" as="geometry" />
        </mxCell>
        <mxCell id="29" value="+add()" style="text;strokeColor=none;fillColor=none;align=left;verticalAlign=top;spacingLeft=4;spacingRight=4;overflow=hidden;rotatable=0;points=[[0,0.5],[1,0.5]];portConstraint=eastwest;" vertex="1" parent="25">
          <mxGeometry y="92" width="157" height="28" as="geometry" />
        </mxCell>
        <mxCell id="30" value="+remove()" style="text;strokeColor=none;fillColor=none;align=left;verticalAlign=top;spacingLeft=4;spacingRight=4;overflow=hidden;rotatable=0;points=[[0,0.5],[1,0.5]];portConstraint=eastwest;" vertex="1" parent="25">
          <mxGeometry y="120" width="157" height="28" as="geometry" />
        </mxCell>
        <mxCell id="31" value="TravelBlogSite" style="swimlane;fontStyle=1;align=center;verticalAlign=top;childLayout=stackLayout;horizontal=1;startSize=24.059999254014755;horizontalStack=0;resizeParent=1;resizeParentMax=0;resizeLast=0;collapsible=0;marginBottom=0;" vertex="1" parent="1">
          <mxGeometry x="143" y="8" width="190" height="441" as="geometry" />
        </mxCell>
        <mxCell id="32" value="- name: string" style="text;strokeColor=none;fillColor=none;align=left;verticalAlign=top;spacingLeft=4;spacingRight=4;overflow=hidden;rotatable=0;points=[[0,0.5],[1,0.5]];portConstraint=eastwest;" vertex="1" parent="31">
          <mxGeometry y="24" width="190" height="24" as="geometry" />
        </mxCell>
        <mxCell id="33" value="- description: string" style="text;strokeColor=none;fillColor=none;align=left;verticalAlign=top;spacingLeft=4;spacingRight=4;overflow=hidden;rotatable=0;points=[[0,0.5],[1,0.5]];portConstraint=eastwest;" vertex="1" parent="31">
          <mxGeometry y="48" width="190" height="24" as="geometry" />
        </mxCell>
        <mxCell id="34" value="- admins: string[]" style="text;strokeColor=none;fillColor=none;align=left;verticalAlign=top;spacingLeft=4;spacingRight=4;overflow=hidden;rotatable=0;points=[[0,0.5],[1,0.5]];portConstraint=eastwest;" vertex="1" parent="31">
          <mxGeometry y="72" width="190" height="24" as="geometry" />
        </mxCell>
        <mxCell id="35" value="- users: User[]" style="text;strokeColor=none;fillColor=none;align=left;verticalAlign=top;spacingLeft=4;spacingRight=4;overflow=hidden;rotatable=0;points=[[0,0.5],[1,0.5]];portConstraint=eastwest;" vertex="1" parent="31">
          <mxGeometry y="96" width="190" height="24" as="geometry" />
        </mxCell>
        <mxCell id="36" value="- posts: BlogPost[]" style="text;strokeColor=none;fillColor=none;align=left;verticalAlign=top;spacingLeft=4;spacingRight=4;overflow=hidden;rotatable=0;points=[[0,0.5],[1,0.5]];portConstraint=eastwest;" vertex="1" parent="31">
          <mxGeometry y="120" width="190" height="24" as="geometry" />
        </mxCell>
        <mxCell id="37" value="- comments: Comment[]" style="text;strokeColor=none;fillColor=none;align=left;verticalAlign=top;spacingLeft=4;spacingRight=4;overflow=hidden;rotatable=0;points=[[0,0.5],[1,0.5]];portConstraint=eastwest;" vertex="1" parent="31">
          <mxGeometry y="144" width="190" height="24" as="geometry" />
        </mxCell>
        <mxCell id="38" value="- tags: Tag[]" style="text;strokeColor=none;fillColor=none;align=left;verticalAlign=top;spacingLeft=4;spacingRight=4;overflow=hidden;rotatable=0;points=[[0,0.5],[1,0.5]];portConstraint=eastwest;" vertex="1" parent="31">
          <mxGeometry y="168" width="190" height="24" as="geometry" />
        </mxCell>
        <mxCell id="39" style="line;strokeWidth=1;fillColor=none;align=left;verticalAlign=middle;spacingTop=-1;spacingLeft=3;spacingRight=3;rotatable=0;labelPosition=right;points=[];portConstraint=eastwest;strokeColor=inherit;" vertex="1" parent="31">
          <mxGeometry y="192" width="190" height="8" as="geometry" />
        </mxCell>
        <mxCell id="40" value="+addAdmin()" style="text;strokeColor=none;fillColor=none;align=left;verticalAlign=top;spacingLeft=4;spacingRight=4;overflow=hidden;rotatable=0;points=[[0,0.5],[1,0.5]];portConstraint=eastwest;" vertex="1" parent="31">
          <mxGeometry y="200" width="190" height="24" as="geometry" />
        </mxCell>
        <mxCell id="41" value="+removeAdmin()" style="text;strokeColor=none;fillColor=none;align=left;verticalAlign=top;spacingLeft=4;spacingRight=4;overflow=hidden;rotatable=0;points=[[0,0.5],[1,0.5]];portConstraint=eastwest;" vertex="1" parent="31">
          <mxGeometry y="225" width="190" height="24" as="geometry" />
        </mxCell>
        <mxCell id="42" value="+addUser()" style="text;strokeColor=none;fillColor=none;align=left;verticalAlign=top;spacingLeft=4;spacingRight=4;overflow=hidden;rotatable=0;points=[[0,0.5],[1,0.5]];portConstraint=eastwest;" vertex="1" parent="31">
          <mxGeometry y="249" width="190" height="24" as="geometry" />
        </mxCell>
        <mxCell id="43" value="+removeUser()" style="text;strokeColor=none;fillColor=none;align=left;verticalAlign=top;spacingLeft=4;spacingRight=4;overflow=hidden;rotatable=0;points=[[0,0.5],[1,0.5]];portConstraint=eastwest;" vertex="1" parent="31">
          <mxGeometry y="273" width="190" height="24" as="geometry" />
        </mxCell>
        <mxCell id="44" value="+addPost()" style="text;strokeColor=none;fillColor=none;align=left;verticalAlign=top;spacingLeft=4;spacingRight=4;overflow=hidden;rotatable=0;points=[[0,0.5],[1,0.5]];portConstraint=eastwest;" vertex="1" parent="31">
          <mxGeometry y="297" width="190" height="24" as="geometry" />
        </mxCell>
        <mxCell id="45" value="+removePost()" style="text;strokeColor=none;fillColor=none;align=left;verticalAlign=top;spacingLeft=4;spacingRight=4;overflow=hidden;rotatable=0;points=[[0,0.5],[1,0.5]];portConstraint=eastwest;" vertex="1" parent="31">
          <mxGeometry y="321" width="190" height="24" as="geometry" />
        </mxCell>
        <mxCell id="46" value="+addComment()" style="text;strokeColor=none;fillColor=none;align=left;verticalAlign=top;spacingLeft=4;spacingRight=4;overflow=hidden;rotatable=0;points=[[0,0.5],[1,0.5]];portConstraint=eastwest;" vertex="1" parent="31">
          <mxGeometry y="345" width="190" height="24" as="geometry" />
        </mxCell>
        <mxCell id="47" value="+removeComment()" style="text;strokeColor=none;fillColor=none;align=left;verticalAlign=top;spacingLeft=4;spacingRight=4;overflow=hidden;rotatable=0;points=[[0,0.5],[1,0.5]];portConstraint=eastwest;" vertex="1" parent="31">
          <mxGeometry y="369" width="190" height="24" as="geometry" />
        </mxCell>
        <mxCell id="48" value="+addTag()" style="text;strokeColor=none;fillColor=none;align=left;verticalAlign=top;spacingLeft=4;spacingRight=4;overflow=hidden;rotatable=0;points=[[0,0.5],[1,0.5]];portConstraint=eastwest;" vertex="1" parent="31">
          <mxGeometry y="393" width="190" height="24" as="geometry" />
        </mxCell>
        <mxCell id="49" value="+removeTag()" style="text;strokeColor=none;fillColor=none;align=left;verticalAlign=top;spacingLeft=4;spacingRight=4;overflow=hidden;rotatable=0;points=[[0,0.5],[1,0.5]];portConstraint=eastwest;" vertex="1" parent="31">
          <mxGeometry y="417" width="190" height="24" as="geometry" />
        </mxCell>
        <mxCell id="50" value="writes" style="curved=1;startArrow=none;endArrow=none;exitX=0.81;exitY=1;entryX=0.16;entryY=0;" edge="1" parent="1" source="2" target="10">
          <mxGeometry relative="1" as="geometry">
            <Array as="points">
              <mxPoint x="143" y="745" />
            </Array>
          </mxGeometry>
        </mxCell>
        <mxCell id="51" value="writes" style="curved=1;startArrow=none;endArrow=none;exitX=0.39;exitY=1;entryX=0;entryY=0.22;" edge="1" parent="1" source="2" target="18">
          <mxGeometry relative="1" as="geometry">
            <Array as="points">
              <mxPoint x="60" y="745" />
              <mxPoint x="60" y="1006" />
            </Array>
          </mxGeometry>
        </mxCell>
        <mxCell id="52" value="has" style="curved=1;startArrow=none;endArrow=none;exitX=0.5;exitY=1;entryX=0.56;entryY=0;" edge="1" parent="1" source="10" target="18">
          <mxGeometry relative="1" as="geometry">
            <Array as="points">
              <mxPoint x="203" y="1006" />
            </Array>
          </mxGeometry>
        </mxCell>
        <mxCell id="53" value="has" style="curved=1;startArrow=none;endArrow=none;exitX=1;exitY=0.84;entryX=0.34;entryY=0;" edge="1" parent="1" source="10" target="25">
          <mxGeometry relative="1" as="geometry">
            <Array as="points">
              <mxPoint x="336" y="1006" />
            </Array>
          </mxGeometry>
        </mxCell>
        <mxCell id="54" value="has" style="curved=1;startArrow=none;endArrow=none;exitX=0;exitY=0.85;entryX=0.5;entryY=0;" edge="1" parent="1" source="31" target="2">
          <mxGeometry relative="1" as="geometry">
            <Array as="points">
              <mxPoint x="81" y="483" />
            </Array>
          </mxGeometry>
        </mxCell>
        <mxCell id="55" value="has" style="curved=1;startArrow=none;endArrow=none;exitX=0.5;exitY=1;entryX=0.69;entryY=0;" edge="1" parent="1" source="31" target="10">
          <mxGeometry relative="1" as="geometry">
            <Array as="points">
              <mxPoint x="238" y="745" />
            </Array>
          </mxGeometry>
        </mxCell>
        <mxCell id="56" value="has" style="curved=1;startArrow=none;endArrow=none;exitX=0.8;exitY=1;entryX=1.01;entryY=0.16;" edge="1" parent="1" source="31" target="18">
          <mxGeometry relative="1" as="geometry">
            <Array as="points">
              <mxPoint x="304" y="483" />
              <mxPoint x="304" y="1006" />
            </Array>
          </mxGeometry>
        </mxCell>
        <mxCell id="57" value="has" style="curved=1;startArrow=none;endArrow=none;exitX=1;exitY=0.9;entryX=0.5;entryY=0;" edge="1" parent="1" source="31" target="25">
          <mxGeometry relative="1" as="geometry">
            <Array as="points">
              <mxPoint x="376" y="483" />
            </Array>
          </mxGeometry>
        </mxCell>
      </root>
    </mxGraphModel>
  </diagram>
</mxfile>
